<?xml version="1.0" ?><!DOCTYPE svg  PUBLIC '-//W3C//DTD SVG 1.1//EN'  'http://www.w3.org/Graphics/SVG/1.1/DTD/svg11.dtd'><svg enable-background="new 0 0 128 128" id="Layer_1" version="1.1" viewBox="0 0 128 128" xml:space="preserve" xmlns="http://www.w3.org/2000/svg" xmlns:xlink="http://www.w3.org/1999/xlink"><path d="M80,108.8c0,1.2-1,2.2-2.2,2.2H42.2c-1.2,0-2.2-1-2.2-2.2V68.2c0-1.2,1-2.2,2.2-2.2h35.5  c1.2,0,2.2,1,2.2,2.2V108.8z" fill="#DD3B86"/><path d="M80,108.8c0,1.2-1,2.2-2.2,2.2H42.2  c-1.2,0-2.2-1-2.2-2.2V68.2c0-1.2,1-2.2,2.2-2.2h35.5c1.2,0,2.2,1,2.2,2.2V108.8z" fill="none" stroke="#3D3D3D" stroke-miterlimit="10" stroke-width="2"/><path d="M87,108.8c0,1.2-1,2.2-2.2,2.2H49.2c-1.2,0-2.2-1-2.2-2.2V68.2c0-1.2,1-2.2,2.2-2.2h35.5  c1.2,0,2.2,1,2.2,2.2V108.8z" fill="#DD3B86"/><rect fill="#E875AE" height="45" width="17" x="59" y="66"/><path d="M87,108.8c0,1.2-1,2.2-2.2,2.2H49.2  c-1.2,0-2.2-1-2.2-2.2V68.2c0-1.2,1-2.2,2.2-2.2h35.5c1.2,0,2.2,1,2.2,2.2V108.8z" fill="none" stroke="#3D3D3D" stroke-miterlimit="10" stroke-width="2"/><path d="M75.8,62H51.2C50,62,49,62.8,49,64v2h29v-2  C78,62.8,77,62,75.8,62z" fill="none" stroke="#3D3D3D" stroke-miterlimit="10" stroke-width="2"/><path d="M69.2,15H57.8c-2.9,0-4.8,2.3-4.8,5.2V62h21V20.2C74,17.3,72.1,15,69.2,15z" fill="#FFFFFF"/><path d="M69.2,15H57.8c-2.9,0-4.8,2.3-4.8,5.2V62h21V20.2  C74,17.3,72.1,15,69.2,15z" fill="none" stroke="#3D3D3D" stroke-miterlimit="10" stroke-width="2"/><path d="M82.5,111H44.5l0,0c0,0,1,2,2.2,2h33.5  C81.5,113,82.5,112,82.5,111L82.5,111z" fill="none" stroke="#3D3D3D" stroke-miterlimit="10" stroke-width="2"/></svg>