<?xml version="1.0" ?><!DOCTYPE svg  PUBLIC '-//W3C//DTD SVG 1.1//EN'  'http://www.w3.org/Graphics/SVG/1.1/DTD/svg11.dtd'><svg enable-background="new 0 0 128 128" id="Layer_1" version="1.1" viewBox="0 0 128 128" xml:space="preserve" xmlns="http://www.w3.org/2000/svg" xmlns:xlink="http://www.w3.org/1999/xlink"><path d="M34.6,102h59.5c9.7,0,17.9-7.5,17.9-17.2v-43c0-1.2-1.3-1.8-2.5-1.8h-86c-1.2,0-2.2,0.8-2.2,2L18,84.7  C18,94.4,24.8,102,34.6,102z" fill="#FFFFFF"/><path d="M34.6,102h59.5c9.7,0,17.9-7.5,17.9-17.2v-43  c0-1.2-1.3-1.8-2.5-1.8h-86c-1.2,0-2.2,0.8-2.2,2L18,84.7C18,94.4,24.8,102,34.6,102z" fill="none" stroke="#3D3D3D" stroke-miterlimit="10" stroke-width="2"/><path d="M40.1,102h59.5c9.7,0,17.4-7.5,17.4-17.2v-43c0-1.2-0.8-1.8-2-1.8H24.6c-1.2,0-2.6,0.6-2.6,1.8v43  C22,94.5,30.3,102,40.1,102z" fill="#FFFFFF"/><g><defs><path d="M40.1,102h59.5c9.7,0,17.4-7.5,17.4-17.2v-43c0-1.2-0.8-1.8-2-1.8H24.6c-1.2,0-2.6,0.6-2.6,1.8v43    C22,94.5,30.3,102,40.1,102z" id="SVGID_1_"/></defs><clipPath id="SVGID_2_"><use overflow="visible" xlink:href="#SVGID_1_"/></clipPath><path clip-path="url(#SVGID_2_)" d="M128,96h-7.9c-0.7-2-2.9-4.4-5.7-4.4s-5,2.4-5.7,4.4H98.1   c-0.7-2-2.9-4.4-5.7-4.4s-5,2.4-5.7,4.4H76.1c-0.7-2-2.9-4.4-5.7-4.4s-5,2.4-5.7,4.4H54c-0.7-2-2.9-4.4-5.7-4.4   c-2.7,0-5,2.4-5.7,4.4H32c-0.7-2-2.9-4.4-5.7-4.4s-5,2.4-5.7,4.4H13v3h7.7c0.8,3,3,4,5.6,4s4.8-1,5.6-4h10.9c0.8,3,3,4,5.6,4   c2.6,0,4.8-1,5.6-4h10.9c0.8,3,3,4,5.6,4c2.6,0,4.8-1,5.6-4h10.9c0.8,3,3,4,5.6,4s4.8-1,5.6-4h10.9c0.8,3,3,4,5.6,4   c2.6,0,4.8-1,5.6-4h8V96z" fill="#E875AE"/><path clip-path="url(#SVGID_2_)" d="M138,84h-7.9c-0.7-3-2.9-4.4-5.7-4.4c-2.7,0-5,1.4-5.7,4.4H108   c-0.7-3-2.9-4.4-5.7-4.4c-2.7,0-5,1.4-5.7,4.4H86c-0.7-3-2.9-4.4-5.7-4.4s-5,1.4-5.7,4.4H63.9c-0.7-3-2.9-4.4-5.7-4.4   s-5,1.4-5.7,4.4H41.9c-0.7-3-2.9-4.4-5.7-4.4c-2.7,0-5,1.4-5.7,4.4H23v3h7.6c0.8,2,3,4,5.6,4c2.6,0,4.8-2,5.6-4h10.9   c0.8,2,3,4,5.6,4s4.8-2,5.6-4h10.9c0.8,2,3,4,5.6,4c2.6,0,4.8-2,5.6-4h10.9c0.8,2,3,4,5.6,4c2.6,0,4.8-2,5.6-4h10.9   c0.8,2,3,4,5.6,4c2.6,0,4.8-2,5.6-4h8V84z" fill="#E875AE"/><path clip-path="url(#SVGID_2_)" d="M128,71h-7.9c-0.7-3-2.9-4.4-5.7-4.4s-5,1.4-5.7,4.4H98.1   c-0.7-3-2.9-4.4-5.7-4.4s-5,1.4-5.7,4.4H76.1c-0.7-3-2.9-4.4-5.7-4.4s-5,1.4-5.7,4.4H54c-0.7-3-2.9-4.4-5.7-4.4   c-2.7,0-5,1.4-5.7,4.4H32c-0.7-3-2.9-4.4-5.7-4.4s-5,1.4-5.7,4.4H13v3h7.7c0.8,2,3,4,5.6,4s4.8-2,5.6-4h10.9c0.8,2,3,4,5.6,4   c2.6,0,4.8-2,5.6-4h10.9c0.8,2,3,4,5.6,4c2.6,0,4.8-2,5.6-4h10.9c0.8,2,3,4,5.6,4s4.8-2,5.6-4h10.9c0.8,2,3,4,5.6,4   c2.6,0,4.8-2,5.6-4h8V71z" fill="#E875AE"/><path clip-path="url(#SVGID_2_)" d="M128,46h-7.9c-0.7-2-2.9-4.4-5.7-4.4s-5,2.4-5.7,4.4H98.1   c-0.7-2-2.9-4.4-5.7-4.4s-5,2.4-5.7,4.4H76.1c-0.7-2-2.9-4.4-5.7-4.4s-5,2.4-5.7,4.4H54c-0.7-2-2.9-4.4-5.7-4.4   c-2.7,0-5,2.4-5.7,4.4H32c-0.7-2-2.9-4.4-5.7-4.4s-5,2.4-5.7,4.4H13v4h7.7c0.8,2,3,4,5.6,4s4.8-2,5.6-4h10.9c0.8,2,3,4,5.6,4   c2.6,0,4.8-2,5.6-4h10.9c0.8,2,3,4,5.6,4c2.6,0,4.8-2,5.6-4h10.9c0.8,2,3,4,5.6,4s4.8-2,5.6-4h10.9c0.8,2,3,4,5.6,4   c2.6,0,4.8-2,5.6-4h8V46z" fill="#E875AE"/><path clip-path="url(#SVGID_2_)" d="M138,58h-7.9c-0.7-2-2.9-4.4-5.7-4.4c-2.7,0-5,2.4-5.7,4.4H108   c-0.7-2-2.9-4.4-5.7-4.4c-2.7,0-5,2.4-5.7,4.4H86c-0.7-2-2.9-4.4-5.7-4.4s-5,2.4-5.7,4.4H63.9c-0.7-2-2.9-4.4-5.7-4.4   s-5,2.4-5.7,4.4H41.9c-0.7-2-2.9-4.4-5.7-4.4c-2.7,0-5,2.4-5.7,4.4H23v4h7.6c0.8,2,3,4,5.6,4c2.6,0,4.8-2,5.6-4h10.9   c0.8,2,3,4,5.6,4s4.8-2,5.6-4h10.9c0.8,2,3,4,5.6,4c2.6,0,4.8-2,5.6-4h10.9c0.8,2,3,4,5.6,4c2.6,0,4.8-2,5.6-4h10.9   c0.8,2,3,4,5.6,4c2.6,0,4.8-2,5.6-4h8V58z" fill="#E875AE"/></g><path d="M115,40H24.6c-1.2,0-2.6,0.6-2.6,1.8V47h95v-5.2C117,40.6,116.2,40,115,40z" fill="#DD3B86"/><path d="M40.1,102h59.5c9.7,0,17.4-7.5,17.4-17.2v-43  c0-1.2-0.8-1.8-2-1.8H24.6c-1.2,0-2.6,0.6-2.6,1.8v43C22,94.5,30.3,102,40.1,102z" fill="none" stroke="#3D3D3D" stroke-miterlimit="10" stroke-width="2"/><rect fill="#E875AE" height="25" width="39" x="51" y="56"/><rect fill="none" height="25" stroke="#3D3D3D" stroke-miterlimit="10" stroke-width="2" width="39" x="51" y="56"/><g><g><polyline fill="none" points="84,74 84,77 81,77   " stroke="#3D3D3D" stroke-miterlimit="10" stroke-width="2"/><line fill="none" stroke="#3D3D3D" stroke-dasharray="7,2" stroke-miterlimit="10" stroke-width="2" x1="79" x2="61" y1="77" y2="77"/><polyline fill="none" points="60,77 57,77 57,74   " stroke="#3D3D3D" stroke-miterlimit="10" stroke-width="2"/><line fill="none" stroke="#3D3D3D" stroke-dasharray="6,2" stroke-miterlimit="10" stroke-width="2" x1="57" x2="57" y1="72" y2="65"/><polyline fill="none" points="57,64 57,61 60,61   " stroke="#3D3D3D" stroke-miterlimit="10" stroke-width="2"/><line fill="none" stroke="#3D3D3D" stroke-dasharray="7,2" stroke-miterlimit="10" stroke-width="2" x1="62" x2="80" y1="61" y2="61"/><polyline fill="none" points="81,61 84,61 84,64   " stroke="#3D3D3D" stroke-miterlimit="10" stroke-width="2"/><line fill="none" stroke="#3D3D3D" stroke-dasharray="6,2" stroke-miterlimit="10" stroke-width="2" x1="84" x2="84" y1="66" y2="73"/></g></g><path d="M6.6,36.5c-1.9-1.1-2.6-3.6-1.4-5.6s3.6-2.6,5.6-1.4c1.9,1.1,12.8,9.7,11.7,11.6  C21.2,43.1,8.5,37.6,6.6,36.5z" fill="#FFFFFF"/><path d="M6.6,36.5c-1.9-1.1-2.6-3.6-1.4-5.6s3.6-2.6,5.6-1.4  c1.9,1.1,12.8,9.7,11.7,11.6C21.2,43.1,8.5,37.6,6.6,36.5z" fill="none" stroke="#3D3D3D" stroke-miterlimit="10" stroke-width="2"/><circle cx="9.2" cy="33.3" fill="#3D3D3D" r="1.7"/><line fill="none" stroke="#3D3D3D" stroke-miterlimit="10" stroke-width="2" x1="28" x2="28" y1="40" y2="45"/><line fill="none" stroke="#3D3D3D" stroke-miterlimit="10" stroke-width="2" x1="32" x2="32" y1="40" y2="45"/><line fill="none" stroke="#3D3D3D" stroke-miterlimit="10" stroke-width="2" x1="37" x2="37" y1="40" y2="45"/><line fill="none" stroke="#3D3D3D" stroke-miterlimit="10" stroke-width="2" x1="41" x2="41" y1="40" y2="45"/><line fill="none" stroke="#3D3D3D" stroke-miterlimit="10" stroke-width="2" x1="46" x2="46" y1="40" y2="45"/><line fill="none" stroke="#3D3D3D" stroke-miterlimit="10" stroke-width="2" x1="50" x2="50" y1="40" y2="45"/><line fill="none" stroke="#3D3D3D" stroke-miterlimit="10" stroke-width="2" x1="54" x2="54" y1="40" y2="45"/><line fill="none" stroke="#3D3D3D" stroke-miterlimit="10" stroke-width="2" x1="59" x2="59" y1="40" y2="45"/><line fill="none" stroke="#3D3D3D" stroke-miterlimit="10" stroke-width="2" x1="63" x2="63" y1="40" y2="45"/><line fill="none" stroke="#3D3D3D" stroke-miterlimit="10" stroke-width="2" x1="68" x2="68" y1="40" y2="45"/><line fill="none" stroke="#3D3D3D" stroke-miterlimit="10" stroke-width="2" x1="72" x2="72" y1="40" y2="45"/><line fill="none" stroke="#3D3D3D" stroke-miterlimit="10" stroke-width="2" x1="76" x2="76" y1="40" y2="45"/><line fill="none" stroke="#3D3D3D" stroke-miterlimit="10" stroke-width="2" x1="81" x2="81" y1="40" y2="45"/><line fill="none" stroke="#3D3D3D" stroke-miterlimit="10" stroke-width="2" x1="85" x2="85" y1="40" y2="45"/><line fill="none" stroke="#3D3D3D" stroke-miterlimit="10" stroke-width="2" x1="90" x2="90" y1="40" y2="45"/><line fill="none" stroke="#3D3D3D" stroke-miterlimit="10" stroke-width="2" x1="94" x2="94" y1="40" y2="45"/><line fill="none" stroke="#3D3D3D" stroke-miterlimit="10" stroke-width="2" x1="98" x2="98" y1="40" y2="45"/><line fill="none" stroke="#3D3D3D" stroke-miterlimit="10" stroke-width="2" x1="103" x2="103" y1="40" y2="45"/><line fill="none" stroke="#3D3D3D" stroke-miterlimit="10" stroke-width="2" x1="107" x2="107" y1="40" y2="45"/><line fill="none" stroke="#3D3D3D" stroke-miterlimit="10" stroke-width="2" x1="112" x2="112" y1="40" y2="45"/></svg>