<?xml version="1.0" ?><svg id="Layer_1" style="enable-background:new 0 0 64 64;" version="1.1" viewBox="0 0 64 64" xml:space="preserve" xmlns="http://www.w3.org/2000/svg" xmlns:xlink="http://www.w3.org/1999/xlink"><style type="text/css">
	.st0{fill:#FFFFFF;}
	.st1{fill-rule:evenodd;clip-rule:evenodd;fill:#FFFFFF;}
	.st2{fill:#D2E5F0;}
	.st3{fill:#B6CFE3;}
</style><g id="XMLID_4713_"><defs><path d="M57.5,57.5c-6,6-45,6-51,0c-6-6-6-45,0-51s45-6,51,0C63.5,12.5,63.5,51.5,57.5,57.5z" id="XMLID_4714_"/></defs><use style="overflow:visible;fill:#664D9F;" xlink:href="#XMLID_4714_"/><clipPath id="XMLID_2_"><use style="overflow:visible;" xlink:href="#XMLID_4714_"/></clipPath></g><g id="XMLID_4708_"><path class="st0" d="M26.6,32.3c-0.9,0-1.9,0.4-2.4,1.3c-0.3,0.6-0.5,1.2-0.4,1.9c0.1,0.7,0.4,1.4,1,1.9   c0.8,0.6,1.9,0.8,2.8,0.4c0.9-0.4,1.5-1.3,1.6-2.2c0.1-0.7-0.1-1.4-0.5-2C28.2,32.7,27.4,32.3,26.6,32.3z" id="XMLID_4712_"/><path class="st0" d="M38.5,23.3c-3.4-1.9-7.6-2.1-11.3-0.8c-1.8,0.7-3.5,1.9-4.9,3.3c0-2.9,0-5.9,0-8.8   c0-0.6-0.3-1.1-0.9-1.4c-0.6-0.3-1.4-0.2-2,0c-0.5,0.2-0.8,0.8-0.9,1.3c0,3,0,6,0,9c0,3.2,0,6.5,0,9.7c0.1,1.8,0.5,3.7,1.2,5.3   c1.4,2.9,3.8,5.3,6.7,6.6c2.4,1,5.2,1.5,7.8,0.9c3.2-0.6,6.2-2.4,8.1-5c1.9-2.4,2.8-5.5,2.8-8.5c0-1.3-0.3-2.7-0.6-4   C43.8,27.8,41.4,25,38.5,23.3z M41.6,36.7c-0.3,2.1-1.3,4.2-2.9,5.6c-1.4,1.4-3.2,2.3-5.1,2.6c-2.2,0.4-4.5-0.1-6.5-1.2   c-1-0.6-1.9-1.4-2.7-2.3c-2.7-3.3-2.8-8.3-0.4-11.7c0.8-1.1,1.7-2,2.9-2.7c1.2-0.8,2.6-1.2,4-1.4c2.3-0.3,4.8,0.3,6.7,1.7   c1.4,1.1,2.6,2.5,3.3,4.1C41.6,33,41.9,34.9,41.6,36.7z" id="XMLID_4709_"/></g></svg>