<?xml version="1.0" ?><svg id="Layer_1" style="enable-background:new 0 0 64 64;" version="1.1" viewBox="0 0 64 64" xml:space="preserve" xmlns="http://www.w3.org/2000/svg" xmlns:xlink="http://www.w3.org/1999/xlink"><style type="text/css">
	.st0{fill:#FFFFFF;}
	.st1{fill-rule:evenodd;clip-rule:evenodd;fill:#FFFFFF;}
	.st2{fill:#D2E5F0;}
	.st3{fill:#B6CFE3;}
</style><g id="XMLID_6293_"><defs><path d="M57.5,57.5c-6,6-45,6-51,0c-6-6-6-45,0-51c6-6,45-6,51,0C63.5,12.5,63.5,51.5,57.5,57.5z" id="XMLID_6294_"/></defs><use style="overflow:visible;fill:#EF4576;" xlink:href="#XMLID_6294_"/><clipPath id="XMLID_2_"><use style="overflow:visible;" xlink:href="#XMLID_6294_"/></clipPath></g><path class="st0" d="M42.7,17c-0.7-0.8-1.7-1.2-2.7-1.2H24c-2,0-3.6,1.6-3.6,3.6v27.2c0,0.7,0.4,1.3,1.1,1.5  c0.2,0.1,0.4,0.1,0.6,0.1c0.5,0,0.9-0.2,1.2-0.5l8.6-9.7h5.8c1.8,0,3.2-1.3,3.5-3l2.4-15C43.7,18.9,43.4,17.8,42.7,17z M38.7,24.9  h-7.6c-0.9,0-1.7,0.7-1.7,1.7c0,0.9,0.7,1.6,1.6,1.6H38c0.5,0,0.9,0.4,0.8,0.9L38,34c-0.1,0.4-0.4,0.7-0.8,0.7l-6.1,0  c-0.5,0-0.9,0.2-1.2,0.5l-6.2,7V19.4c0-0.2,0.1-0.3,0.3-0.3h15.4c0.5,0,0.9,0.4,0.8,0.9l-0.6,4.2C39.5,24.6,39.2,24.9,38.7,24.9z" id="XMLID_6290_"/></svg>