<?xml version="1.0" ?><svg id="Layer_1" style="enable-background:new 0 0 64 64;" version="1.1" viewBox="0 0 64 64" xml:space="preserve" xmlns="http://www.w3.org/2000/svg" xmlns:xlink="http://www.w3.org/1999/xlink"><style type="text/css">
	.st0{fill:#FFFFFF;}
	.st1{fill-rule:evenodd;clip-rule:evenodd;fill:#FFFFFF;}
	.st2{fill:#D2E5F0;}
	.st3{fill:#B6CFE3;}
</style><g id="XMLID_7310_"><defs><path d="M57.5,57.5c-6,6-45,6-51,0c-6-6-6-45,0-51c6-6,45-6,51,0C63.5,12.5,63.5,51.5,57.5,57.5z" id="XMLID_7311_"/></defs><use style="overflow:visible;fill:#34B44A;" xlink:href="#XMLID_7311_"/><clipPath id="XMLID_2_"><use style="overflow:visible;" xlink:href="#XMLID_7311_"/></clipPath></g><path class="st0" d="M48.2,29c-0.4-6.8-7.5-12.3-16.2-12.3c-8.9,0-16.2,5.8-16.2,12.9c0,6.5,6.1,11.9,14.1,12.8  c0.5,0.1,0.8,0.5,0.8,1l-0.3,3c-0.1,0.7,0.6,1.2,1.3,0.9c6.7-3.2,10.7-6.6,13.1-9.4c0.4-0.5,1.9-2.5,2.1-3c0.6-1.1,1-2.3,1.2-3.5  c0.1-0.4,0.1-0.7,0.1-1C48.2,29.8,48.2,29.2,48.2,29z M25.6,33.8h-3.3c-0.5,0-0.8-0.4-0.8-0.8v-6.3c0-0.5,0.4-0.8,0.8-0.8  c0.5,0,0.8,0.4,0.8,0.8v5.4h2.5c0.5,0,0.8,0.4,0.8,0.8C26.4,33.5,26,33.8,25.6,33.8z M28.8,33.2c0,0.4-0.3,0.6-0.6,0.6h-0.4  c-0.4,0-0.6-0.3-0.6-0.6v-6.6c0-0.4,0.3-0.6,0.6-0.6h0.4c0.4,0,0.6,0.3,0.6,0.6V33.2z M36.6,33c0,0.5-0.4,0.9-0.8,0.9  c-0.2,0-0.4-0.1-0.6-0.2c0,0-3.4-4.4-3.4-4.4V33c0,0.5-0.4,0.8-0.8,0.8c-0.5,0-0.8-0.4-0.8-0.8v-6.2c0-0.5,0.3-0.8,0.8-0.9  c0.3,0,0.5,0.1,0.6,0.3c0.1,0.1,3.4,4.4,3.4,4.4v-3.8c0-0.5,0.4-0.8,0.8-0.8c0.5,0,0.8,0.4,0.8,0.8V33z M41.9,29  c0.5,0,0.8,0.4,0.8,0.8c0,0.5-0.4,0.8-0.8,0.8h-2.5v1.5h2.5c0.5,0,0.8,0.4,0.8,0.8c0,0.5-0.4,0.8-0.8,0.8h-3.3  c-0.5,0-0.8-0.4-0.8-0.8v-6.3c0-0.5,0.4-0.8,0.8-0.8h3.3c0.5,0,0.8,0.4,0.8,0.8c0,0.5-0.4,0.8-0.8,0.8h-2.5V29H41.9z" id="XMLID_7304_"/></svg>