<?xml version="1.0" ?><svg id="Layer_1" style="enable-background:new 0 0 64 64;" version="1.1" viewBox="0 0 64 64" xml:space="preserve" xmlns="http://www.w3.org/2000/svg" xmlns:xlink="http://www.w3.org/1999/xlink"><style type="text/css">
	.st0{fill:#FFFFFF;}
	.st1{fill-rule:evenodd;clip-rule:evenodd;fill:#FFFFFF;}
	.st2{fill:#D2E5F0;}
	.st3{fill:#B6CFE3;}
</style><g id="XMLID_8361_"><defs><path d="M57.5,57.5c-6,6-45,6-51,0c-6-6-6-45,0-51c6-6,45-6,51,0C63.5,12.5,63.5,51.5,57.5,57.5z" id="XMLID_8362_"/></defs><use style="overflow:visible;fill:#F48022;" xlink:href="#XMLID_8362_"/><clipPath id="XMLID_2_"><use style="overflow:visible;" xlink:href="#XMLID_8362_"/></clipPath></g><g id="XMLID_8353_"><rect class="st0" height="2.7" id="XMLID_8360_" width="12.8" x="23.3" y="41.1"/><rect class="st0" height="12.8" id="XMLID_8359_" transform="matrix(0.9853 -0.171 0.171 0.9853 -3.1969 7.5596)" width="2.7" x="40.9" y="15.9"/><rect class="st0" height="12.8" id="XMLID_8358_" transform="matrix(9.168559e-02 -0.9958 0.9958 9.168559e-02 -11.0962 64.6464)" width="2.7" x="28.5" y="32"/><rect class="st0" height="12.8" id="XMLID_8357_" transform="matrix(0.2596 -0.9657 0.9657 0.2596 -9.8473 54.611)" width="2.7" x="29.3" y="27.3"/><rect class="st0" height="12.8" id="XMLID_8356_" transform="matrix(0.508 -0.8613 0.8613 0.508 -8.8154 42.3108)" width="2.7" x="31.3" y="22.5"/><rect class="st0" height="12.8" id="XMLID_8355_" transform="matrix(0.8262 -0.5634 0.5634 0.8262 -7.4167 24.9984)" width="2.7" x="35.4" y="18.1"/><path class="st0" d="M38.2,34.9V46H21.5V34.9h-2.2v13.3h0c0,0,0.6,0,0.6,0h20.5v0c0,0,0-0.6,0-0.6V34.9H38.2z" id="XMLID_8354_"/></g></svg>