<?xml version="1.0" ?><svg id="Layer_1" style="enable-background:new 0 0 64 64;" version="1.1" viewBox="0 0 64 64" xml:space="preserve" xmlns="http://www.w3.org/2000/svg" xmlns:xlink="http://www.w3.org/1999/xlink"><style type="text/css">
	.st0{fill:#FFFFFF;}
	.st1{fill-rule:evenodd;clip-rule:evenodd;fill:#FFFFFF;}
	.st2{fill:#D2E5F0;}
	.st3{fill:#B6CFE3;}
</style><g id="XMLID_9624_"><defs><path d="M57.5,57.5c-6,6-45,6-51,0c-6-6-6-45,0-51c6-6,45-6,51,0C63.5,12.5,63.5,51.5,57.5,57.5z" id="XMLID_9625_"/></defs><use style="overflow:visible;fill:#36475C;" xlink:href="#XMLID_9625_"/><clipPath id="XMLID_2_"><use style="overflow:visible;" xlink:href="#XMLID_9625_"/></clipPath></g><path class="st0" d="M39.6,41.6c0,0-1,1.1-2.8,1.1s-2.6-1.1-2.6-2.7c0-0.7,0-4.7,0-9.3h5.9v-5.6h-5.9  c0-5,0-9.3,0-9.3h-4.4c-0.7,4.2-3.4,7.6-7.1,9.3v5.6H27c0,5.4,0,10.3,0,10.7c0,1.5,1.4,6.9,8.5,6.9c4.2,0,5.9-2.7,5.9-2.7L39.6,41.6  z" id="XMLID_9623_"/></svg>